<mxfile host="app.diagrams.net" modified="2022-10-18T07:51:42.911Z" agent="5.0 (Windows NT 10.0; Win64; x64) AppleWebKit/537.36 (KHTML, like Gecko) Chrome/106.0.0.0 Safari/537.36 Edg/106.0.1370.47" etag="rC0XTe9LQVgiWrDjJBOo" version="20.4.1" type="github" pages="3">
  <diagram id="C5RBs43oDa-KdzZeNtuy" name="总体架构">
    <mxGraphModel dx="1422" dy="786" grid="1" gridSize="10" guides="1" tooltips="1" connect="1" arrows="1" fold="1" page="1" pageScale="1" pageWidth="827" pageHeight="1169" math="0" shadow="0">
      <root>
        <mxCell id="WIyWlLk6GJQsqaUBKTNV-0" />
        <mxCell id="WIyWlLk6GJQsqaUBKTNV-1" parent="WIyWlLk6GJQsqaUBKTNV-0" />
        <mxCell id="MVzGXysxAG-uWQFW-auq-35" value="" style="rounded=0;whiteSpace=wrap;html=1;fillColor=none;" parent="WIyWlLk6GJQsqaUBKTNV-1" vertex="1">
          <mxGeometry x="130" y="80" width="490" height="500" as="geometry" />
        </mxCell>
        <mxCell id="MVzGXysxAG-uWQFW-auq-25" value="" style="rounded=0;whiteSpace=wrap;html=1;fillColor=none;dashed=1;" parent="WIyWlLk6GJQsqaUBKTNV-1" vertex="1">
          <mxGeometry x="145" y="470" width="455" height="100" as="geometry" />
        </mxCell>
        <mxCell id="MVzGXysxAG-uWQFW-auq-24" value="" style="rounded=0;whiteSpace=wrap;html=1;fillColor=none;dashed=1;" parent="WIyWlLk6GJQsqaUBKTNV-1" vertex="1">
          <mxGeometry x="145" y="310" width="455" height="140" as="geometry" />
        </mxCell>
        <mxCell id="MVzGXysxAG-uWQFW-auq-21" value="" style="rounded=0;whiteSpace=wrap;html=1;fillColor=none;dashed=1;" parent="WIyWlLk6GJQsqaUBKTNV-1" vertex="1">
          <mxGeometry x="145" y="190" width="455" height="100" as="geometry" />
        </mxCell>
        <mxCell id="MVzGXysxAG-uWQFW-auq-20" value="" style="rounded=0;whiteSpace=wrap;html=1;fillColor=none;dashed=1;" parent="WIyWlLk6GJQsqaUBKTNV-1" vertex="1">
          <mxGeometry x="145" y="100" width="455" height="70" as="geometry" />
        </mxCell>
        <mxCell id="WIyWlLk6GJQsqaUBKTNV-3" value="监控图像" style="rounded=0;whiteSpace=wrap;html=1;fontSize=12;glass=0;strokeWidth=1;shadow=0;" parent="WIyWlLk6GJQsqaUBKTNV-1" vertex="1">
          <mxGeometry x="250" y="115" width="120" height="40" as="geometry" />
        </mxCell>
        <mxCell id="MVzGXysxAG-uWQFW-auq-2" value="图像采集" style="text;html=1;align=center;verticalAlign=middle;resizable=0;points=[];autosize=1;strokeColor=none;fillColor=none;" parent="WIyWlLk6GJQsqaUBKTNV-1" vertex="1">
          <mxGeometry x="170" y="120" width="70" height="30" as="geometry" />
        </mxCell>
        <mxCell id="MVzGXysxAG-uWQFW-auq-6" style="edgeStyle=orthogonalEdgeStyle;rounded=0;orthogonalLoop=1;jettySize=auto;html=1;" parent="WIyWlLk6GJQsqaUBKTNV-1" source="MVzGXysxAG-uWQFW-auq-3" target="MVzGXysxAG-uWQFW-auq-4" edge="1">
          <mxGeometry relative="1" as="geometry" />
        </mxCell>
        <mxCell id="MVzGXysxAG-uWQFW-auq-3" value="人脸检测" style="rounded=0;whiteSpace=wrap;html=1;fillColor=default;" parent="WIyWlLk6GJQsqaUBKTNV-1" vertex="1">
          <mxGeometry x="150" y="225" width="120" height="40" as="geometry" />
        </mxCell>
        <mxCell id="MVzGXysxAG-uWQFW-auq-7" style="edgeStyle=orthogonalEdgeStyle;rounded=0;orthogonalLoop=1;jettySize=auto;html=1;entryX=0;entryY=0.5;entryDx=0;entryDy=0;" parent="WIyWlLk6GJQsqaUBKTNV-1" source="MVzGXysxAG-uWQFW-auq-4" target="MVzGXysxAG-uWQFW-auq-5" edge="1">
          <mxGeometry relative="1" as="geometry" />
        </mxCell>
        <mxCell id="MVzGXysxAG-uWQFW-auq-4" value="face mask 去隐私化" style="rounded=0;whiteSpace=wrap;html=1;fillColor=default;" parent="WIyWlLk6GJQsqaUBKTNV-1" vertex="1">
          <mxGeometry x="300" y="225" width="120" height="40" as="geometry" />
        </mxCell>
        <mxCell id="MVzGXysxAG-uWQFW-auq-5" value="去隐私化图像存储" style="rounded=0;whiteSpace=wrap;html=1;fillColor=default;" parent="WIyWlLk6GJQsqaUBKTNV-1" vertex="1">
          <mxGeometry x="460" y="225" width="120" height="40" as="geometry" />
        </mxCell>
        <mxCell id="MVzGXysxAG-uWQFW-auq-13" style="edgeStyle=orthogonalEdgeStyle;rounded=0;orthogonalLoop=1;jettySize=auto;html=1;entryX=0;entryY=0.5;entryDx=0;entryDy=0;" parent="WIyWlLk6GJQsqaUBKTNV-1" source="MVzGXysxAG-uWQFW-auq-8" target="MVzGXysxAG-uWQFW-auq-9" edge="1">
          <mxGeometry relative="1" as="geometry" />
        </mxCell>
        <mxCell id="MVzGXysxAG-uWQFW-auq-8" value="人脸数据提取" style="rounded=0;whiteSpace=wrap;html=1;fillColor=default;" parent="WIyWlLk6GJQsqaUBKTNV-1" vertex="1">
          <mxGeometry x="160" y="360" width="120" height="40" as="geometry" />
        </mxCell>
        <mxCell id="MVzGXysxAG-uWQFW-auq-14" style="edgeStyle=orthogonalEdgeStyle;rounded=0;orthogonalLoop=1;jettySize=auto;html=1;entryX=0;entryY=0.5;entryDx=0;entryDy=0;" parent="WIyWlLk6GJQsqaUBKTNV-1" source="MVzGXysxAG-uWQFW-auq-9" target="MVzGXysxAG-uWQFW-auq-11" edge="1">
          <mxGeometry relative="1" as="geometry" />
        </mxCell>
        <mxCell id="MVzGXysxAG-uWQFW-auq-15" style="edgeStyle=orthogonalEdgeStyle;rounded=0;orthogonalLoop=1;jettySize=auto;html=1;entryX=0;entryY=0.5;entryDx=0;entryDy=0;" parent="WIyWlLk6GJQsqaUBKTNV-1" source="MVzGXysxAG-uWQFW-auq-9" target="MVzGXysxAG-uWQFW-auq-12" edge="1">
          <mxGeometry relative="1" as="geometry" />
        </mxCell>
        <mxCell id="MVzGXysxAG-uWQFW-auq-9" value="人脸数据加密" style="rounded=0;whiteSpace=wrap;html=1;fillColor=default;" parent="WIyWlLk6GJQsqaUBKTNV-1" vertex="1">
          <mxGeometry x="310" y="360" width="120" height="40" as="geometry" />
        </mxCell>
        <mxCell id="MVzGXysxAG-uWQFW-auq-11" value="人脸密文存储" style="rounded=0;whiteSpace=wrap;html=1;fillColor=default;" parent="WIyWlLk6GJQsqaUBKTNV-1" vertex="1">
          <mxGeometry x="470" y="320" width="120" height="40" as="geometry" />
        </mxCell>
        <mxCell id="MVzGXysxAG-uWQFW-auq-12" value="人脸密钥存储" style="rounded=0;whiteSpace=wrap;html=1;fillColor=default;" parent="WIyWlLk6GJQsqaUBKTNV-1" vertex="1">
          <mxGeometry x="470" y="400" width="120" height="40" as="geometry" />
        </mxCell>
        <mxCell id="MVzGXysxAG-uWQFW-auq-39" style="edgeStyle=orthogonalEdgeStyle;rounded=0;orthogonalLoop=1;jettySize=auto;html=1;entryX=0;entryY=0.5;entryDx=0;entryDy=0;" parent="WIyWlLk6GJQsqaUBKTNV-1" source="MVzGXysxAG-uWQFW-auq-16" target="MVzGXysxAG-uWQFW-auq-17" edge="1">
          <mxGeometry relative="1" as="geometry" />
        </mxCell>
        <mxCell id="MVzGXysxAG-uWQFW-auq-16" value="人脸指纹计算" style="rounded=0;whiteSpace=wrap;html=1;fillColor=default;" parent="WIyWlLk6GJQsqaUBKTNV-1" vertex="1">
          <mxGeometry x="160" y="505" width="120" height="40" as="geometry" />
        </mxCell>
        <mxCell id="MVzGXysxAG-uWQFW-auq-17" value="区块链存储" style="rounded=0;whiteSpace=wrap;html=1;fillColor=default;" parent="WIyWlLk6GJQsqaUBKTNV-1" vertex="1">
          <mxGeometry x="315" y="505" width="120" height="40" as="geometry" />
        </mxCell>
        <mxCell id="MVzGXysxAG-uWQFW-auq-23" style="edgeStyle=orthogonalEdgeStyle;rounded=0;orthogonalLoop=1;jettySize=auto;html=1;entryX=0.5;entryY=0;entryDx=0;entryDy=0;" parent="WIyWlLk6GJQsqaUBKTNV-1" source="MVzGXysxAG-uWQFW-auq-20" target="MVzGXysxAG-uWQFW-auq-21" edge="1">
          <mxGeometry relative="1" as="geometry" />
        </mxCell>
        <mxCell id="MVzGXysxAG-uWQFW-auq-26" style="edgeStyle=orthogonalEdgeStyle;rounded=0;orthogonalLoop=1;jettySize=auto;html=1;entryX=0.5;entryY=0;entryDx=0;entryDy=0;" parent="WIyWlLk6GJQsqaUBKTNV-1" source="MVzGXysxAG-uWQFW-auq-21" target="MVzGXysxAG-uWQFW-auq-24" edge="1">
          <mxGeometry relative="1" as="geometry" />
        </mxCell>
        <mxCell id="MVzGXysxAG-uWQFW-auq-27" style="edgeStyle=orthogonalEdgeStyle;rounded=0;orthogonalLoop=1;jettySize=auto;html=1;entryX=0.5;entryY=0;entryDx=0;entryDy=0;" parent="WIyWlLk6GJQsqaUBKTNV-1" source="MVzGXysxAG-uWQFW-auq-24" target="MVzGXysxAG-uWQFW-auq-25" edge="1">
          <mxGeometry relative="1" as="geometry" />
        </mxCell>
        <mxCell id="MVzGXysxAG-uWQFW-auq-29" value="人脸隐私保护模块" style="text;html=1;align=center;verticalAlign=middle;resizable=0;points=[];autosize=1;strokeColor=none;fillColor=none;" parent="WIyWlLk6GJQsqaUBKTNV-1" vertex="1">
          <mxGeometry x="145" y="190" width="120" height="30" as="geometry" />
        </mxCell>
        <mxCell id="MVzGXysxAG-uWQFW-auq-30" value="人脸私密性模块&lt;br&gt;" style="text;html=1;align=center;verticalAlign=middle;resizable=0;points=[];autosize=1;strokeColor=none;fillColor=none;" parent="WIyWlLk6GJQsqaUBKTNV-1" vertex="1">
          <mxGeometry x="145" y="310" width="110" height="30" as="geometry" />
        </mxCell>
        <mxCell id="MVzGXysxAG-uWQFW-auq-31" value="人脸完整性模块" style="text;html=1;align=center;verticalAlign=middle;resizable=0;points=[];autosize=1;strokeColor=none;fillColor=none;" parent="WIyWlLk6GJQsqaUBKTNV-1" vertex="1">
          <mxGeometry x="145" y="470" width="110" height="30" as="geometry" />
        </mxCell>
        <mxCell id="qkrcbtvOz6kqvmCzhJ64-0" value="视图库图像" style="rounded=0;whiteSpace=wrap;html=1;" vertex="1" parent="WIyWlLk6GJQsqaUBKTNV-1">
          <mxGeometry x="400" y="115" width="120" height="40" as="geometry" />
        </mxCell>
      </root>
    </mxGraphModel>
  </diagram>
  <diagram id="-VKIrLLDTGQx4RRVJaQG" name="反向过程">
    <mxGraphModel dx="1422" dy="786" grid="1" gridSize="10" guides="1" tooltips="1" connect="1" arrows="1" fold="1" page="1" pageScale="1" pageWidth="827" pageHeight="1169" math="0" shadow="0">
      <root>
        <mxCell id="0" />
        <mxCell id="1" parent="0" />
        <mxCell id="KIJZz3Co9a9sa9CVFfHB-6" value="" style="rounded=0;whiteSpace=wrap;html=1;fillColor=none;" parent="1" vertex="1">
          <mxGeometry x="30" y="30" width="640" height="530" as="geometry" />
        </mxCell>
        <mxCell id="KIJZz3Co9a9sa9CVFfHB-3" value="" style="rounded=0;whiteSpace=wrap;html=1;dashed=1;fillColor=none;" parent="1" vertex="1">
          <mxGeometry x="410" y="60" width="230" height="470" as="geometry" />
        </mxCell>
        <mxCell id="KIJZz3Co9a9sa9CVFfHB-1" value="" style="rounded=0;whiteSpace=wrap;html=1;dashed=1;fillColor=none;" parent="1" vertex="1">
          <mxGeometry x="210" y="60" width="190" height="240" as="geometry" />
        </mxCell>
        <mxCell id="MB0l_RFAwYuOKAs4vBkQ-57" value="" style="rounded=0;whiteSpace=wrap;html=1;fillColor=none;dashed=1;" parent="1" vertex="1">
          <mxGeometry x="40" y="310" width="170" height="220" as="geometry" />
        </mxCell>
        <mxCell id="MB0l_RFAwYuOKAs4vBkQ-1" style="edgeStyle=orthogonalEdgeStyle;rounded=0;orthogonalLoop=1;jettySize=auto;html=1;entryX=0.5;entryY=0;entryDx=0;entryDy=0;strokeWidth=2;" parent="1" source="1kAMh8px42mwaqg6lwGX-1" target="1kAMh8px42mwaqg6lwGX-2" edge="1">
          <mxGeometry relative="1" as="geometry" />
        </mxCell>
        <mxCell id="1kAMh8px42mwaqg6lwGX-1" value="检索图片库" style="rounded=0;whiteSpace=wrap;html=1;fillColor=default;" parent="1" vertex="1">
          <mxGeometry x="90" y="100" width="80" height="40" as="geometry" />
        </mxCell>
        <mxCell id="MB0l_RFAwYuOKAs4vBkQ-14" style="edgeStyle=orthogonalEdgeStyle;rounded=0;orthogonalLoop=1;jettySize=auto;html=1;strokeWidth=2;" parent="1" source="1kAMh8px42mwaqg6lwGX-2" target="MB0l_RFAwYuOKAs4vBkQ-11" edge="1">
          <mxGeometry relative="1" as="geometry" />
        </mxCell>
        <mxCell id="1kAMh8px42mwaqg6lwGX-2" value="获取去隐私化的图像" style="rounded=0;whiteSpace=wrap;html=1;fillColor=default;" parent="1" vertex="1">
          <mxGeometry x="90" y="240" width="80" height="40" as="geometry" />
        </mxCell>
        <mxCell id="MB0l_RFAwYuOKAs4vBkQ-7" style="edgeStyle=orthogonalEdgeStyle;rounded=0;orthogonalLoop=1;jettySize=auto;html=1;entryX=0.5;entryY=0;entryDx=0;entryDy=0;" parent="1" source="MB0l_RFAwYuOKAs4vBkQ-2" target="MB0l_RFAwYuOKAs4vBkQ-5" edge="1">
          <mxGeometry relative="1" as="geometry" />
        </mxCell>
        <mxCell id="MB0l_RFAwYuOKAs4vBkQ-2" value="检索指定图像的人脸密文" style="rounded=0;whiteSpace=wrap;html=1;fillColor=default;" parent="1" vertex="1">
          <mxGeometry x="220" y="100" width="80" height="40" as="geometry" />
        </mxCell>
        <mxCell id="MB0l_RFAwYuOKAs4vBkQ-8" style="edgeStyle=orthogonalEdgeStyle;rounded=0;orthogonalLoop=1;jettySize=auto;html=1;entryX=0.5;entryY=0;entryDx=0;entryDy=0;" parent="1" source="MB0l_RFAwYuOKAs4vBkQ-3" target="MB0l_RFAwYuOKAs4vBkQ-5" edge="1">
          <mxGeometry relative="1" as="geometry" />
        </mxCell>
        <mxCell id="MB0l_RFAwYuOKAs4vBkQ-3" value="用户持有的密钥" style="whiteSpace=wrap;html=1;rounded=0;fillColor=default;" parent="1" vertex="1">
          <mxGeometry x="310" y="100" width="80" height="40" as="geometry" />
        </mxCell>
        <mxCell id="MB0l_RFAwYuOKAs4vBkQ-54" style="edgeStyle=orthogonalEdgeStyle;rounded=0;orthogonalLoop=1;jettySize=auto;html=1;entryX=0.75;entryY=0;entryDx=0;entryDy=0;strokeWidth=2;" parent="1" source="MB0l_RFAwYuOKAs4vBkQ-5" target="MB0l_RFAwYuOKAs4vBkQ-11" edge="1">
          <mxGeometry relative="1" as="geometry">
            <Array as="points">
              <mxPoint x="280" y="350" />
              <mxPoint x="155" y="350" />
            </Array>
          </mxGeometry>
        </mxCell>
        <mxCell id="MB0l_RFAwYuOKAs4vBkQ-55" style="edgeStyle=orthogonalEdgeStyle;rounded=0;orthogonalLoop=1;jettySize=auto;html=1;strokeWidth=1;" parent="1" source="MB0l_RFAwYuOKAs4vBkQ-5" target="MB0l_RFAwYuOKAs4vBkQ-20" edge="1">
          <mxGeometry relative="1" as="geometry">
            <Array as="points">
              <mxPoint x="320" y="350" />
            </Array>
          </mxGeometry>
        </mxCell>
        <mxCell id="MB0l_RFAwYuOKAs4vBkQ-5" value="解密人脸密文得到人脸数据" style="whiteSpace=wrap;html=1;rounded=0;fillColor=default;" parent="1" vertex="1">
          <mxGeometry x="250" y="240" width="100" height="40" as="geometry" />
        </mxCell>
        <mxCell id="MB0l_RFAwYuOKAs4vBkQ-18" style="edgeStyle=orthogonalEdgeStyle;rounded=0;orthogonalLoop=1;jettySize=auto;html=1;entryX=0.5;entryY=0;entryDx=0;entryDy=0;strokeWidth=2;" parent="1" source="MB0l_RFAwYuOKAs4vBkQ-11" target="MB0l_RFAwYuOKAs4vBkQ-17" edge="1">
          <mxGeometry relative="1" as="geometry" />
        </mxCell>
        <mxCell id="MB0l_RFAwYuOKAs4vBkQ-11" value="使用人脸数据替换face mask" style="rounded=0;whiteSpace=wrap;html=1;fillColor=default;" parent="1" vertex="1">
          <mxGeometry x="80" y="390" width="100" height="40" as="geometry" />
        </mxCell>
        <mxCell id="MB0l_RFAwYuOKAs4vBkQ-17" value="得到原始图像，并交付给用户" style="whiteSpace=wrap;html=1;rounded=0;fillColor=default;" parent="1" vertex="1">
          <mxGeometry x="85" y="462.5" width="90" height="45" as="geometry" />
        </mxCell>
        <mxCell id="MB0l_RFAwYuOKAs4vBkQ-23" style="edgeStyle=orthogonalEdgeStyle;rounded=0;orthogonalLoop=1;jettySize=auto;html=1;entryX=0.5;entryY=0;entryDx=0;entryDy=0;" parent="1" source="MB0l_RFAwYuOKAs4vBkQ-19" target="MB0l_RFAwYuOKAs4vBkQ-22" edge="1">
          <mxGeometry relative="1" as="geometry" />
        </mxCell>
        <mxCell id="MB0l_RFAwYuOKAs4vBkQ-19" value="检索区块链" style="whiteSpace=wrap;html=1;rounded=0;fillColor=default;" parent="1" vertex="1">
          <mxGeometry x="496" y="100" width="80" height="40" as="geometry" />
        </mxCell>
        <mxCell id="MB0l_RFAwYuOKAs4vBkQ-47" style="edgeStyle=orthogonalEdgeStyle;rounded=0;orthogonalLoop=1;jettySize=auto;html=1;entryX=0;entryY=0.5;entryDx=0;entryDy=0;strokeWidth=1;" parent="1" source="MB0l_RFAwYuOKAs4vBkQ-20" target="MB0l_RFAwYuOKAs4vBkQ-28" edge="1">
          <mxGeometry relative="1" as="geometry" />
        </mxCell>
        <mxCell id="MB0l_RFAwYuOKAs4vBkQ-20" value="计算人脸数据的哈希值" style="rounded=0;whiteSpace=wrap;html=1;fillColor=default;" parent="1" vertex="1">
          <mxGeometry x="420" y="310" width="60" height="70" as="geometry" />
        </mxCell>
        <mxCell id="MB0l_RFAwYuOKAs4vBkQ-49" style="edgeStyle=orthogonalEdgeStyle;rounded=0;orthogonalLoop=1;jettySize=auto;html=1;entryX=0.5;entryY=0;entryDx=0;entryDy=0;strokeWidth=1;" parent="1" source="MB0l_RFAwYuOKAs4vBkQ-22" target="MB0l_RFAwYuOKAs4vBkQ-28" edge="1">
          <mxGeometry relative="1" as="geometry" />
        </mxCell>
        <mxCell id="MB0l_RFAwYuOKAs4vBkQ-22" value="得到图像的的数据指纹" style="rounded=0;whiteSpace=wrap;html=1;fillColor=default;" parent="1" vertex="1">
          <mxGeometry x="496" y="240" width="80" height="40" as="geometry" />
        </mxCell>
        <mxCell id="MB0l_RFAwYuOKAs4vBkQ-34" style="edgeStyle=orthogonalEdgeStyle;rounded=0;orthogonalLoop=1;jettySize=auto;html=1;exitX=1;exitY=0.5;exitDx=0;exitDy=0;" parent="1" source="MB0l_RFAwYuOKAs4vBkQ-28" target="MB0l_RFAwYuOKAs4vBkQ-33" edge="1">
          <mxGeometry relative="1" as="geometry">
            <Array as="points">
              <mxPoint x="590" y="345" />
            </Array>
          </mxGeometry>
        </mxCell>
        <mxCell id="KIJZz3Co9a9sa9CVFfHB-5" style="edgeStyle=orthogonalEdgeStyle;rounded=0;orthogonalLoop=1;jettySize=auto;html=1;exitX=0.5;exitY=1;exitDx=0;exitDy=0;strokeWidth=2;" parent="1" source="MB0l_RFAwYuOKAs4vBkQ-28" edge="1">
          <mxGeometry relative="1" as="geometry">
            <mxPoint x="180" y="410" as="targetPoint" />
            <Array as="points">
              <mxPoint x="536" y="410" />
              <mxPoint x="180" y="410" />
            </Array>
          </mxGeometry>
        </mxCell>
        <mxCell id="MB0l_RFAwYuOKAs4vBkQ-28" value="是否相同" style="rhombus;whiteSpace=wrap;html=1;rounded=0;fillColor=default;" parent="1" vertex="1">
          <mxGeometry x="506" y="315" width="60" height="60" as="geometry" />
        </mxCell>
        <mxCell id="MB0l_RFAwYuOKAs4vBkQ-32" value="Y" style="text;html=1;align=center;verticalAlign=middle;resizable=0;points=[];autosize=1;strokeColor=none;fillColor=none;" parent="1" vertex="1">
          <mxGeometry x="506" y="380" width="30" height="30" as="geometry" />
        </mxCell>
        <mxCell id="MB0l_RFAwYuOKAs4vBkQ-33" value="人脸数据已被篡改" style="rounded=0;whiteSpace=wrap;html=1;fillColor=default;" parent="1" vertex="1">
          <mxGeometry x="536" y="467.5" width="100" height="35" as="geometry" />
        </mxCell>
        <mxCell id="MB0l_RFAwYuOKAs4vBkQ-35" value="N" style="text;html=1;align=center;verticalAlign=middle;resizable=0;points=[];autosize=1;strokeColor=none;fillColor=none;" parent="1" vertex="1">
          <mxGeometry x="566" y="325" width="30" height="30" as="geometry" />
        </mxCell>
        <mxCell id="MB0l_RFAwYuOKAs4vBkQ-59" value="人脸替换过程" style="text;html=1;align=center;verticalAlign=middle;resizable=0;points=[];autosize=1;strokeColor=none;fillColor=none;horizontal=1;" parent="1" vertex="1">
          <mxGeometry x="40" y="530" width="100" height="30" as="geometry" />
        </mxCell>
        <mxCell id="KIJZz3Co9a9sa9CVFfHB-2" value="人脸数据解密过程" style="text;html=1;align=center;verticalAlign=middle;resizable=0;points=[];autosize=1;strokeColor=none;fillColor=none;" parent="1" vertex="1">
          <mxGeometry x="210" y="30" width="120" height="30" as="geometry" />
        </mxCell>
        <mxCell id="KIJZz3Co9a9sa9CVFfHB-4" value="人脸完整性校验过程" style="text;html=1;align=center;verticalAlign=middle;resizable=0;points=[];autosize=1;strokeColor=none;fillColor=none;horizontal=1;" parent="1" vertex="1">
          <mxGeometry x="400" y="30" width="130" height="30" as="geometry" />
        </mxCell>
      </root>
    </mxGraphModel>
  </diagram>
  <diagram id="YbXFav5gelndmGKsWvRQ" name="正向过程">
    <mxGraphModel dx="1422" dy="786" grid="1" gridSize="10" guides="1" tooltips="1" connect="1" arrows="1" fold="1" page="1" pageScale="1" pageWidth="827" pageHeight="1169" math="0" shadow="0">
      <root>
        <mxCell id="0" />
        <mxCell id="1" parent="0" />
        <mxCell id="lrqqWhtxAbYgg2bAAVtC-12" style="edgeStyle=orthogonalEdgeStyle;rounded=0;orthogonalLoop=1;jettySize=auto;html=1;" edge="1" parent="1" source="lrqqWhtxAbYgg2bAAVtC-4" target="lrqqWhtxAbYgg2bAAVtC-5">
          <mxGeometry relative="1" as="geometry" />
        </mxCell>
        <mxCell id="lrqqWhtxAbYgg2bAAVtC-4" value="获取监控图像img" style="whiteSpace=wrap;html=1;" vertex="1" parent="1">
          <mxGeometry x="310" y="175" width="120" height="60" as="geometry" />
        </mxCell>
        <mxCell id="lrqqWhtxAbYgg2bAAVtC-13" style="edgeStyle=orthogonalEdgeStyle;rounded=0;orthogonalLoop=1;jettySize=auto;html=1;" edge="1" parent="1" source="lrqqWhtxAbYgg2bAAVtC-5" target="lrqqWhtxAbYgg2bAAVtC-10">
          <mxGeometry relative="1" as="geometry" />
        </mxCell>
        <mxCell id="lrqqWhtxAbYgg2bAAVtC-22" style="edgeStyle=orthogonalEdgeStyle;rounded=0;orthogonalLoop=1;jettySize=auto;html=1;entryX=0.5;entryY=0;entryDx=0;entryDy=0;" edge="1" parent="1" source="lrqqWhtxAbYgg2bAAVtC-5" target="lrqqWhtxAbYgg2bAAVtC-18">
          <mxGeometry relative="1" as="geometry" />
        </mxCell>
        <mxCell id="lrqqWhtxAbYgg2bAAVtC-29" style="edgeStyle=orthogonalEdgeStyle;rounded=0;orthogonalLoop=1;jettySize=auto;html=1;entryX=0.5;entryY=0;entryDx=0;entryDy=0;" edge="1" parent="1" source="lrqqWhtxAbYgg2bAAVtC-5" target="lrqqWhtxAbYgg2bAAVtC-27">
          <mxGeometry relative="1" as="geometry" />
        </mxCell>
        <mxCell id="lrqqWhtxAbYgg2bAAVtC-30" style="edgeStyle=orthogonalEdgeStyle;rounded=0;orthogonalLoop=1;jettySize=auto;html=1;entryX=0.5;entryY=0;entryDx=0;entryDy=0;" edge="1" parent="1" source="lrqqWhtxAbYgg2bAAVtC-5" target="lrqqWhtxAbYgg2bAAVtC-28">
          <mxGeometry relative="1" as="geometry" />
        </mxCell>
        <mxCell id="lrqqWhtxAbYgg2bAAVtC-5" value="人脸检测算法检测出全部n张人脸face1,face2..facen" style="whiteSpace=wrap;html=1;" vertex="1" parent="1">
          <mxGeometry x="310" y="265" width="120" height="60" as="geometry" />
        </mxCell>
        <mxCell id="lrqqWhtxAbYgg2bAAVtC-11" style="edgeStyle=orthogonalEdgeStyle;rounded=0;orthogonalLoop=1;jettySize=auto;html=1;" edge="1" parent="1" source="lrqqWhtxAbYgg2bAAVtC-9" target="lrqqWhtxAbYgg2bAAVtC-4">
          <mxGeometry relative="1" as="geometry" />
        </mxCell>
        <mxCell id="lrqqWhtxAbYgg2bAAVtC-9" value="监控摄像头" style="rounded=0;whiteSpace=wrap;html=1;" vertex="1" parent="1">
          <mxGeometry x="310" y="85" width="120" height="60" as="geometry" />
        </mxCell>
        <mxCell id="lrqqWhtxAbYgg2bAAVtC-15" style="edgeStyle=orthogonalEdgeStyle;rounded=0;orthogonalLoop=1;jettySize=auto;html=1;entryX=0.5;entryY=0;entryDx=0;entryDy=0;" edge="1" parent="1" source="lrqqWhtxAbYgg2bAAVtC-10" target="lrqqWhtxAbYgg2bAAVtC-14">
          <mxGeometry relative="1" as="geometry" />
        </mxCell>
        <mxCell id="lrqqWhtxAbYgg2bAAVtC-10" value="使用n个face mask覆盖face1...facen" style="rounded=0;whiteSpace=wrap;html=1;" vertex="1" parent="1">
          <mxGeometry x="50" y="395" width="120" height="60" as="geometry" />
        </mxCell>
        <mxCell id="lrqqWhtxAbYgg2bAAVtC-40" style="edgeStyle=orthogonalEdgeStyle;rounded=0;orthogonalLoop=1;jettySize=auto;html=1;entryX=0;entryY=0.5;entryDx=0;entryDy=0;exitX=0.5;exitY=1;exitDx=0;exitDy=0;" edge="1" parent="1" source="lrqqWhtxAbYgg2bAAVtC-14" target="lrqqWhtxAbYgg2bAAVtC-34">
          <mxGeometry relative="1" as="geometry" />
        </mxCell>
        <mxCell id="lrqqWhtxAbYgg2bAAVtC-14" value="将去隐私化的图像存储至视图库" style="whiteSpace=wrap;html=1;" vertex="1" parent="1">
          <mxGeometry x="50" y="630" width="120" height="60" as="geometry" />
        </mxCell>
        <mxCell id="lrqqWhtxAbYgg2bAAVtC-17" style="edgeStyle=orthogonalEdgeStyle;rounded=0;orthogonalLoop=1;jettySize=auto;html=1;entryX=0.5;entryY=0;entryDx=0;entryDy=0;" edge="1" parent="1" source="lrqqWhtxAbYgg2bAAVtC-16" target="lrqqWhtxAbYgg2bAAVtC-9">
          <mxGeometry relative="1" as="geometry" />
        </mxCell>
        <mxCell id="lrqqWhtxAbYgg2bAAVtC-16" value="开始" style="rounded=1;whiteSpace=wrap;html=1;" vertex="1" parent="1">
          <mxGeometry x="310" width="120" height="60" as="geometry" />
        </mxCell>
        <mxCell id="lrqqWhtxAbYgg2bAAVtC-23" style="edgeStyle=orthogonalEdgeStyle;rounded=0;orthogonalLoop=1;jettySize=auto;html=1;entryX=0.5;entryY=0;entryDx=0;entryDy=0;" edge="1" parent="1" source="lrqqWhtxAbYgg2bAAVtC-18" target="lrqqWhtxAbYgg2bAAVtC-19">
          <mxGeometry relative="1" as="geometry" />
        </mxCell>
        <mxCell id="lrqqWhtxAbYgg2bAAVtC-24" style="edgeStyle=orthogonalEdgeStyle;rounded=0;orthogonalLoop=1;jettySize=auto;html=1;entryX=0.5;entryY=0;entryDx=0;entryDy=0;" edge="1" parent="1" source="lrqqWhtxAbYgg2bAAVtC-18" target="lrqqWhtxAbYgg2bAAVtC-20">
          <mxGeometry relative="1" as="geometry" />
        </mxCell>
        <mxCell id="lrqqWhtxAbYgg2bAAVtC-18" value="分别加密face1...facen" style="rounded=0;whiteSpace=wrap;html=1;" vertex="1" parent="1">
          <mxGeometry x="310" y="395" width="120" height="60" as="geometry" />
        </mxCell>
        <mxCell id="lrqqWhtxAbYgg2bAAVtC-25" style="edgeStyle=orthogonalEdgeStyle;rounded=0;orthogonalLoop=1;jettySize=auto;html=1;" edge="1" parent="1" source="lrqqWhtxAbYgg2bAAVtC-19" target="lrqqWhtxAbYgg2bAAVtC-21">
          <mxGeometry relative="1" as="geometry" />
        </mxCell>
        <mxCell id="lrqqWhtxAbYgg2bAAVtC-19" value="得到加密后的face1...facen" style="rounded=0;whiteSpace=wrap;html=1;" vertex="1" parent="1">
          <mxGeometry x="230" y="525" width="120" height="60" as="geometry" />
        </mxCell>
        <mxCell id="lrqqWhtxAbYgg2bAAVtC-26" style="edgeStyle=orthogonalEdgeStyle;rounded=0;orthogonalLoop=1;jettySize=auto;html=1;entryX=0.5;entryY=0;entryDx=0;entryDy=0;" edge="1" parent="1" source="lrqqWhtxAbYgg2bAAVtC-20" target="lrqqWhtxAbYgg2bAAVtC-21">
          <mxGeometry relative="1" as="geometry" />
        </mxCell>
        <mxCell id="lrqqWhtxAbYgg2bAAVtC-20" value="解密face1...facen的密钥key1...keyn" style="whiteSpace=wrap;html=1;" vertex="1" parent="1">
          <mxGeometry x="390" y="525" width="120" height="60" as="geometry" />
        </mxCell>
        <mxCell id="lrqqWhtxAbYgg2bAAVtC-36" style="edgeStyle=orthogonalEdgeStyle;rounded=0;orthogonalLoop=1;jettySize=auto;html=1;entryX=0.5;entryY=0;entryDx=0;entryDy=0;" edge="1" parent="1" source="lrqqWhtxAbYgg2bAAVtC-21" target="lrqqWhtxAbYgg2bAAVtC-34">
          <mxGeometry relative="1" as="geometry" />
        </mxCell>
        <mxCell id="lrqqWhtxAbYgg2bAAVtC-21" value="存储至数据库" style="whiteSpace=wrap;html=1;" vertex="1" parent="1">
          <mxGeometry x="310" y="630" width="120" height="60" as="geometry" />
        </mxCell>
        <mxCell id="lrqqWhtxAbYgg2bAAVtC-32" style="edgeStyle=orthogonalEdgeStyle;rounded=0;orthogonalLoop=1;jettySize=auto;html=1;entryX=0.5;entryY=0;entryDx=0;entryDy=0;" edge="1" parent="1" source="lrqqWhtxAbYgg2bAAVtC-27" target="lrqqWhtxAbYgg2bAAVtC-31">
          <mxGeometry relative="1" as="geometry" />
        </mxCell>
        <mxCell id="lrqqWhtxAbYgg2bAAVtC-27" value="计算face1..facen的hash值作为数据指纹" style="rounded=0;whiteSpace=wrap;html=1;" vertex="1" parent="1">
          <mxGeometry x="550" y="395" width="120" height="60" as="geometry" />
        </mxCell>
        <mxCell id="lrqqWhtxAbYgg2bAAVtC-33" style="edgeStyle=orthogonalEdgeStyle;rounded=0;orthogonalLoop=1;jettySize=auto;html=1;entryX=0.5;entryY=0;entryDx=0;entryDy=0;" edge="1" parent="1" source="lrqqWhtxAbYgg2bAAVtC-28" target="lrqqWhtxAbYgg2bAAVtC-31">
          <mxGeometry relative="1" as="geometry" />
        </mxCell>
        <mxCell id="lrqqWhtxAbYgg2bAAVtC-28" value="获取face1...facen在原始图像上的坐标信息ord1...ordn" style="rounded=0;whiteSpace=wrap;html=1;" vertex="1" parent="1">
          <mxGeometry x="680" y="395" width="120" height="60" as="geometry" />
        </mxCell>
        <mxCell id="lrqqWhtxAbYgg2bAAVtC-39" style="edgeStyle=orthogonalEdgeStyle;rounded=0;orthogonalLoop=1;jettySize=auto;html=1;entryX=1;entryY=0.5;entryDx=0;entryDy=0;exitX=0.5;exitY=1;exitDx=0;exitDy=0;" edge="1" parent="1" source="lrqqWhtxAbYgg2bAAVtC-31" target="lrqqWhtxAbYgg2bAAVtC-34">
          <mxGeometry relative="1" as="geometry" />
        </mxCell>
        <mxCell id="lrqqWhtxAbYgg2bAAVtC-31" value="存储至区块链" style="rounded=0;whiteSpace=wrap;html=1;" vertex="1" parent="1">
          <mxGeometry x="610" y="630" width="120" height="60" as="geometry" />
        </mxCell>
        <mxCell id="lrqqWhtxAbYgg2bAAVtC-34" value="结束" style="rounded=1;whiteSpace=wrap;html=1;" vertex="1" parent="1">
          <mxGeometry x="310" y="880" width="120" height="60" as="geometry" />
        </mxCell>
      </root>
    </mxGraphModel>
  </diagram>
</mxfile>
